# xmcd CD database file
#
# Track frame offsets:
#	150
#	10022
#	27512
#	52770
#	65682
#	81947
#	97042
#	118505
#	139252
#	154230
#	178355
#	198225
#	218785
#	241057
#	264305
#
# Disc length: 3806 seconds
#
# Revision: 2
# Processed by: cddbd v1.5.1PL2 Copyright (c) Steve Scherf et al.
# Submitted via: CDex 1.51
#
DISCID=ce0edc0f
DTITLE=mixed by Jeff Samuel - Poker Flat vol.4 CD2
DYEAR=2005
DGENRE=Techno
TTITLE0=Detroit Grand Pubahs - Surrender
TTITLE1=Steve Bug - Bug in Your Brain
TTITLE2=Chardronnet vs Afrilounge - Just For A Little Peek
TTITLE3=ADJD - Save Me
TTITLE4=Guido Schneider meets Jens Bond - Oh my Buffer
TTITLE5=Guido Schneider - As Dry As I can
TTITLE6=Martin Landsky - FM Safari
TTITLE7=Steve Bug - Loverboy (Reloved)
TTITLE8=Phonique and The Usual Suspects - Alfred Rock
TTITLE9=Jeff Samuel - Glurf
TTITLE10=Guido Schneider - Las Cuerdas De Las Canarias
TTITLE11=John Tejada - Sweat (On The Walls)
TTITLE12=Donnacha Costello - The Plan
TTITLE13=Phonique - Suspicious Kermit Dance
TTITLE14=Adjd - Getting Closer
EXTD=YEAR: 2005
EXTT0=
EXTT1=
EXTT2=
EXTT3=
EXTT4=
EXTT5=
EXTT6=
EXTT7=
EXTT8=
EXTT9=
EXTT10=
EXTT11=
EXTT12=
EXTT13=
EXTT14=
PLAYORDER=
